<svg width="222" height="145" viewBox="0 0 222 145" fill="none" xmlns="http://www.w3.org/2000/svg">
<path d="M220.812 116.589L214.77 134.9C212.859 140.696 207.473 144.591 201.368 144.591H20.152C14.048 144.591 8.66302 140.696 6.75002 134.901L0.708021 116.588C-0.706979 112.3 0.0270212 107.556 2.67302 103.897C5.31902 100.238 9.59502 98.053 14.111 98.053H37.355V65.468C37.355 29.88 66.307 0.927979 101.895 0.927979H118.759C154.347 0.927979 183.299 29.88 183.299 65.468V98.053H207.41C211.926 98.053 216.201 100.238 218.848 103.897C221.493 107.556 222.227 112.3 220.812 116.589Z" fill="black"/>
</svg>
