<svg width="189" height="183" viewBox="0 0 189 183" fill="none" xmlns="http://www.w3.org/2000/svg">
<g filter="url(#filter0_d_139_165)">
<path d="M71 27C71 39.7026 81.2974 50 94 50C106.703 50 117 39.7026 117 27C117 14.2975 106.703 4 94 4C81.2974 4 71 14.2975 71 27Z" fill="#FFFFB7"/>
</g>
<path d="M20.2834 122V56.7098H32.4532L37.6941 90.5541L38.1383 94.0185H38.3159L38.7601 90.5541L44.0011 56.7098H56.1708V122H47.2878V78.2067H46.7548L46.3995 80.9604L40.7144 122H35.7399L30.0547 80.9604L29.6994 78.2067H29.1664V122H20.2834ZM61.3119 122L71.172 56.7098H82.8976L92.7578 122H83.4306L81.654 108.675H72.4156L70.639 122H61.3119ZM73.7481 98.5488H80.3215L77.5678 76.6078L77.3013 73.1434H76.7683L76.5018 76.6078L73.7481 98.5488ZM97.8363 122V56.7098H120.666V66.57H107.43V83.7142H116.313V93.5743H107.43V122H97.8363ZM124.555 122V56.7098H134.148V122H124.555ZM139.299 122L149.159 56.7098H160.884L170.744 122H161.417L159.641 108.675H150.402L148.626 122H139.299ZM151.735 98.5488H158.308L155.554 76.6078L155.288 73.1434H154.755L154.488 76.6078L151.735 98.5488Z" fill="white"/>
<path d="M55.9794 183V139.722H48.9051V132.023H70.5441V139.722H63.4698V183H55.9794ZM74.0141 183V132.023H81.5045V183H74.0141ZM87.086 183V132.023H96.5878L100.68 158.448L101.027 161.153H101.165L101.512 158.448L105.604 132.023H115.106V183H108.17V148.808H107.754L107.477 150.958L103.038 183H99.154L94.7152 150.958L94.4378 148.808H94.0216V183H87.086ZM120.68 183V132.023H137.811V139.722H128.171V153.454H135.106V160.945H128.171V175.301H137.811V183H120.68Z" fill="#868DFF"/>
<defs>
<filter id="filter0_d_139_165" x="67" y="0" width="54" height="54" filterUnits="userSpaceOnUse" color-interpolation-filters="sRGB">
<feFlood flood-opacity="0" result="BackgroundImageFix"/>
<feColorMatrix in="SourceAlpha" type="matrix" values="0 0 0 0 0 0 0 0 0 0 0 0 0 0 0 0 0 0 127 0" result="hardAlpha"/>
<feOffset/>
<feGaussianBlur stdDeviation="2"/>
<feComposite in2="hardAlpha" operator="out"/>
<feColorMatrix type="matrix" values="0 0 0 0 1 0 0 0 0 1 0 0 0 0 0.717647 0 0 0 1 0"/>
<feBlend mode="normal" in2="BackgroundImageFix" result="effect1_dropShadow_139_165"/>
<feBlend mode="normal" in="SourceGraphic" in2="effect1_dropShadow_139_165" result="shape"/>
</filter>
</defs>
</svg>
