<svg width="189" height="186" viewBox="0 0 189 186" fill="none" xmlns="http://www.w3.org/2000/svg">
<path d="M20.2834 125V59.7098H32.4532L37.6941 93.5541L38.1383 97.0185H38.3159L38.7601 93.5541L44.0011 59.7098H56.1708V125H47.2878V81.2067H46.7548L46.3995 83.9604L40.7144 125H35.7399L30.0547 83.9604L29.6994 81.2067H29.1664V125H20.2834ZM61.3119 125L71.172 59.7098H82.8976L92.7578 125H83.4306L81.654 111.675H72.4156L70.639 125H61.3119ZM73.7481 101.549H80.3215L77.5678 79.6078L77.3013 76.1434H76.7683L76.5018 79.6078L73.7481 101.549ZM97.8363 125V59.7098H120.666V69.57H107.43V86.7142H116.313V96.5743H107.43V125H97.8363ZM124.555 125V59.7098H134.148V125H124.555ZM139.299 125L149.159 59.7098H160.884L170.744 125H161.417L159.641 111.675H150.402L148.626 125H139.299ZM151.735 101.549H158.308L155.554 79.6078L155.288 76.1434H154.755L154.488 79.6078L151.735 101.549Z" fill="white"/>
<path d="M55.9794 186V142.722H48.9051V135.023H70.5441V142.722H63.4698V186H55.9794ZM74.0141 186V135.023H81.5045V186H74.0141ZM87.086 186V135.023H96.5878L100.68 161.448L101.027 164.153H101.165L101.512 161.448L105.604 135.023H115.106V186H108.17V151.808H107.754L107.477 153.958L103.038 186H99.154L94.7152 153.958L94.4378 151.808H94.0216V186H87.086ZM120.68 186V135.023H137.811V142.722H128.171V156.454H135.106V163.945H128.171V178.301H137.811V186H120.68Z" fill="#FF9868"/>
<g filter="url(#filter0_d_131_155)">
<path fill-rule="evenodd" clip-rule="evenodd" d="M71.0188 52.0001C67.8553 47.2586 66 41.4922 66 35.2727C66 19.1058 78.536 6 94 6C109.464 6 122 19.1058 122 35.2727C122 41.4922 120.145 47.2586 116.981 52.0001H71.0188Z" fill="#FFFFE2"/>
</g>
<defs>
<filter id="filter0_d_131_155" x="62" y="0" width="64" height="54.0001" filterUnits="userSpaceOnUse" color-interpolation-filters="sRGB">
<feFlood flood-opacity="0" result="BackgroundImageFix"/>
<feColorMatrix in="SourceAlpha" type="matrix" values="0 0 0 0 0 0 0 0 0 0 0 0 0 0 0 0 0 0 127 0" result="hardAlpha"/>
<feOffset dy="-2"/>
<feGaussianBlur stdDeviation="2"/>
<feComposite in2="hardAlpha" operator="out"/>
<feColorMatrix type="matrix" values="0 0 0 0 1 0 0 0 0 0.596078 0 0 0 0 0.407843 0 0 0 1 0"/>
<feBlend mode="normal" in2="BackgroundImageFix" result="effect1_dropShadow_131_155"/>
<feBlend mode="normal" in="SourceGraphic" in2="effect1_dropShadow_131_155" result="shape"/>
</filter>
</defs>
</svg>
