<svg width="189" height="185" viewBox="0 0 189 185" fill="none" xmlns="http://www.w3.org/2000/svg">
<path d="M20.2834 124V58.7098H32.4532L37.6941 92.5541L38.1383 96.0185H38.3159L38.7601 92.5541L44.0011 58.7098H56.1708V124H47.2878V80.2067H46.7548L46.3995 82.9604L40.7144 124H35.7399L30.0547 82.9604L29.6994 80.2067H29.1664V124H20.2834ZM61.3119 124L71.172 58.7098H82.8976L92.7578 124H83.4306L81.654 110.675H72.4156L70.639 124H61.3119ZM73.7481 100.549H80.3215L77.5678 78.6078L77.3013 75.1434H76.7683L76.5018 78.6078L73.7481 100.549ZM97.8363 124V58.7098H120.666V68.57H107.43V85.7142H116.313V95.5743H107.43V124H97.8363ZM124.555 124V58.7098H134.148V124H124.555ZM139.299 124L149.159 58.7098H160.884L170.744 124H161.417L159.641 110.675H150.402L148.626 124H139.299ZM151.735 100.549H158.308L155.554 78.6078L155.288 75.1434H154.755L154.488 78.6078L151.735 100.549Z" fill="white"/>
<path d="M55.9794 185V141.722H48.9051V134.023H70.5441V141.722H63.4698V185H55.9794ZM74.0141 185V134.023H81.5045V185H74.0141ZM87.086 185V134.023H96.5878L100.68 160.448L101.027 163.153H101.165L101.512 160.448L105.604 134.023H115.106V185H108.17V150.808H107.754L107.477 152.958L103.038 185H99.154L94.7152 152.958L94.4378 150.808H94.0216V185H87.086ZM120.68 185V134.023H137.811V141.722H128.171V155.454H135.106V162.945H128.171V177.301H137.811V185H120.68Z" fill="#C24878"/>
<g filter="url(#filter0_d_131_156)">
<path fill-rule="evenodd" clip-rule="evenodd" d="M71.0188 50.0001C67.8553 45.4648 66 39.949 66 34C66 18.536 78.536 6 94 6C109.464 6 122 18.536 122 34C122 39.949 120.145 45.4648 116.981 50.0001H71.0188Z" fill="#FF782D"/>
</g>
<defs>
<filter id="filter0_d_131_156" x="62" y="0" width="64" height="52.0001" filterUnits="userSpaceOnUse" color-interpolation-filters="sRGB">
<feFlood flood-opacity="0" result="BackgroundImageFix"/>
<feColorMatrix in="SourceAlpha" type="matrix" values="0 0 0 0 0 0 0 0 0 0 0 0 0 0 0 0 0 0 127 0" result="hardAlpha"/>
<feOffset dy="-2"/>
<feGaussianBlur stdDeviation="2"/>
<feComposite in2="hardAlpha" operator="out"/>
<feColorMatrix type="matrix" values="0 0 0 0 0.760784 0 0 0 0 0.282353 0 0 0 0 0.470588 0 0 0 1 0"/>
<feBlend mode="normal" in2="BackgroundImageFix" result="effect1_dropShadow_131_156"/>
<feBlend mode="normal" in="SourceGraphic" in2="effect1_dropShadow_131_156" result="shape"/>
</filter>
</defs>
</svg>

