<svg width="189" height="184" viewBox="0 0 189 184" fill="none" xmlns="http://www.w3.org/2000/svg">
<g filter="url(#filter0_d_131_157)">
<path fill-rule="evenodd" clip-rule="evenodd" d="M100.398 4.12355C99.6101 4.04187 98.8099 4 98 4C85.2975 4 75 14.2974 75 27C75 39.7025 85.2975 50 98 50C107.355 50 115.406 44.4146 118.999 36.3966C107.667 38.428 97.4319 35.161 93.7203 27.4041C90.3351 20.3293 93.2629 11.3723 100.398 4.12355Z" fill="white"/>
</g>
<path d="M20.2834 123V57.7098H32.4532L37.6941 91.5541L38.1383 95.0185H38.3159L38.7601 91.5541L44.0011 57.7098H56.1708V123H47.2878V79.2067H46.7548L46.3995 81.9604L40.7144 123H35.7399L30.0547 81.9604L29.6994 79.2067H29.1664V123H20.2834ZM61.3119 123L71.172 57.7098H82.8976L92.7578 123H83.4306L81.654 109.675H72.4156L70.639 123H61.3119ZM73.7481 99.5488H80.3215L77.5678 77.6078L77.3013 74.1434H76.7683L76.5018 77.6078L73.7481 99.5488ZM97.8363 123V57.7098H120.666V67.57H107.43V84.7142H116.313V94.5743H107.43V123H97.8363ZM124.555 123V57.7098H134.148V123H124.555ZM139.299 123L149.159 57.7098H160.884L170.744 123H161.417L159.641 109.675H150.402L148.626 123H139.299ZM151.735 99.5488H158.308L155.554 77.6078L155.288 74.1434H154.755L154.488 77.6078L151.735 99.5488Z" fill="white"/>
<path d="M55.9794 184V140.722H48.9051V133.023H70.5441V140.722H63.4698V184H55.9794ZM74.0141 184V133.023H81.5045V184H74.0141ZM87.086 184V133.023H96.5878L100.68 159.448L101.027 162.153H101.165L101.512 159.448L105.604 133.023H115.106V184H108.17V149.808H107.754L107.477 151.958L103.038 184H99.154L94.7152 151.958L94.4378 149.808H94.0216V184H87.086ZM120.68 184V133.023H137.811V140.722H128.171V154.454H135.106V161.945H128.171V176.301H137.811V184H120.68Z" fill="#2B3188"/>
<defs>
<filter id="filter0_d_131_157" x="71" y="0" width="51.9993" height="54" filterUnits="userSpaceOnUse" color-interpolation-filters="sRGB">
<feFlood flood-opacity="0" result="BackgroundImageFix"/>
<feColorMatrix in="SourceAlpha" type="matrix" values="0 0 0 0 0 0 0 0 0 0 0 0 0 0 0 0 0 0 127 0" result="hardAlpha"/>
<feOffset/>
<feGaussianBlur stdDeviation="2"/>
<feComposite in2="hardAlpha" operator="out"/>
<feColorMatrix type="matrix" values="0 0 0 0 1 0 0 0 0 1 0 0 0 0 1 0 0 0 1 0"/>
<feBlend mode="normal" in2="BackgroundImageFix" result="effect1_dropShadow_131_157"/>
<feBlend mode="normal" in="SourceGraphic" in2="effect1_dropShadow_131_157" result="shape"/>
</filter>
</defs>
</svg>
