<svg width="496" height="496" viewBox="0 0 496 496" fill="none" xmlns="http://www.w3.org/2000/svg">
<path d="M248 0C111.03 0 0 111.03 0 248C0 384.97 111.03 496 248 496C384.97 496 496 384.97 496 248C496 111.03 384.97 0 248 0ZM432 248C432 279.93 423.8 309.97 409.43 336.17L280 232.63V66.97C366.23 82.18 432 157.47 432 248ZM216 429.03C182.14 423.06 151.51 407.83 126.71 386.01L216 314.57V429.03ZM280 314.57L369.29 386C344.49 407.82 313.86 423.05 280 429.02V314.57ZM216 66.97V232.63L86.57 336.17C72.2 309.97 64 279.93 64 248C64 157.47 129.77 82.18 216 66.97Z" fill="black"/>
</svg>
