<svg width="261" height="278" viewBox="0 0 261 278" fill="none" xmlns="http://www.w3.org/2000/svg">
<path d="M130.5 0.96875C95.7232 0.96875 67.5312 29.1608 67.5312 63.9375C67.5312 98.7142 95.7232 126.906 130.5 126.906C165.277 126.906 193.469 98.7142 193.469 63.9375C193.469 29.1608 165.277 0.96875 130.5 0.96875Z" fill="black"/>
<path d="M63.3332 160.49C28.5566 160.49 0.364502 188.682 0.364502 223.458V243.412C0.364502 256.06 9.5308 266.844 22.0135 268.882C93.8622 280.612 167.138 280.612 238.986 268.882C251.469 266.844 260.635 256.06 260.635 243.412V223.458C260.635 188.682 232.443 160.49 197.667 160.49H191.943C188.845 160.49 185.766 160.979 182.822 161.941L168.288 166.687C143.734 174.704 117.266 174.704 92.7117 166.687L78.1783 161.941C75.2334 160.979 72.1549 160.49 69.057 160.49H63.3332Z" fill="black"/>
</svg>
